<svg width="74" height="12" viewBox="0 0 74 12" fill="none" xmlns="http://www.w3.org/2000/svg">
<path opacity="0.35" d="M68.2881 0.833313H49.8881C48.567 0.833313 47.4961 1.80336 47.4961 2.99998V8.99994C47.4961 10.1966 48.567 11.1666 49.8881 11.1666H68.2881C69.6092 11.1666 70.6801 10.1966 70.6801 8.99994V2.99998C70.6801 1.80336 69.6092 0.833313 68.2881 0.833313Z" stroke="black"/>
<path opacity="0.4" d="M72.3359 4V8C73.228 7.6612 73.8076 6.8731 73.8076 6C73.8076 5.1269 73.228 4.3388 72.3359 4Z" fill="black"/>
<path d="M67.5521 2.33331H50.6241C49.8111 2.33331 49.1521 2.93027 49.1521 3.66664V8.33331C49.1521 9.06969 49.8111 9.66664 50.6241 9.66664H67.5521C68.365 9.66664 69.0241 9.06969 69.0241 8.33331V3.66664C69.0241 2.93027 68.365 2.33331 67.5521 2.33331Z" fill="black"/>
<path fill-rule="evenodd" clip-rule="evenodd" d="M32.9607 2.5739C35.416 2.574 37.7786 3.4117 39.5582 4.9138C39.6929 5.0298 39.9071 5.0284 40.0385 4.9106L41.3202 3.7627C41.3876 3.703 41.424 3.6221 41.424 3.5379C41.4229 3.4537 41.3854 3.3731 41.3169 3.3141C36.6448 -0.660201 29.2745 -0.660201 24.6024 3.3141C24.535 3.3731 24.4964 3.4536 24.4964 3.5378C24.4953 3.622 24.5328 3.7029 24.5991 3.7627L25.8808 4.9106C26.0133 5.0285 26.2274 5.03 26.361 4.9138C28.1418 3.4116 30.5043 2.5739 32.9607 2.5739ZM32.9585 6.2995C34.3098 6.2994 35.6125 6.756 36.6139 7.5805C36.7497 7.6976 36.9627 7.695 37.0941 7.5748L38.3759 6.3977C38.4432 6.3359 38.4807 6.2522 38.4796 6.1651C38.4785 6.0781 38.4399 5.995 38.3703 5.9345C35.3211 3.3552 30.5982 3.3552 27.5489 5.9345C27.4805 5.995 27.4407 6.0781 27.4396 6.1652C27.4385 6.2523 27.4761 6.336 27.5445 6.3977L28.8252 7.5748C28.9565 7.695 29.1707 7.6976 29.3054 7.5805C30.3067 6.7565 31.6083 6.3 32.9585 6.2995ZM35.5352 9.0231C35.5374 9.1085 35.4999 9.1909 35.4315 9.2508L33.2069 11.2419C33.1418 11.3004 33.0524 11.3333 32.9596 11.3333C32.8669 11.3333 32.7786 11.3004 32.7134 11.2419L30.4889 9.2508C30.4193 9.1908 30.3818 9.1084 30.384 9.023C30.3862 8.9375 30.4282 8.8566 30.4988 8.7993C31.9197 7.7336 34.0007 7.7336 35.4204 8.7993C35.4922 8.8567 35.5341 8.9376 35.5352 9.0231Z" fill="black"/>
<path fill-rule="evenodd" clip-rule="evenodd" d="M18.9765 1.66669C18.9765 1.11439 18.4819 0.666687 17.8725 0.666687H16.7685C16.158 0.666687 15.6645 1.11439 15.6645 1.66669V10.3333C15.6645 10.8856 16.158 11.3333 16.7685 11.3333H17.8725C18.4819 11.3333 18.9765 10.8856 18.9765 10.3333V1.66669ZM11.6161 2.99999H12.7201C13.3295 2.99999 13.8241 3.44769 13.8241 3.99999V10.3333C13.8241 10.8856 13.3295 11.3333 12.7201 11.3333H11.6161C11.0067 11.3333 10.5121 10.8856 10.5121 10.3333V3.99999C10.5121 3.44769 11.0067 2.99999 11.6161 2.99999ZM7.56777 5.33329H6.46377C5.85436 5.33329 5.35977 5.78099 5.35977 6.33329V10.3333C5.35977 10.8856 5.85436 11.3333 6.46377 11.3333H7.56777C8.17717 11.3333 8.67177 10.8856 8.67177 10.3333V6.33329C8.67177 5.78099 8.17717 5.33329 7.56777 5.33329ZM3.52049 8.33329C3.52049 7.78099 3.0259 7.33329 2.41649 7.33329H1.31249C0.701983 7.33329 0.208496 7.78099 0.208496 8.33329V10.3333C0.208496 10.8856 0.701983 11.3333 1.31249 11.3333H2.41649C3.0259 11.3333 3.52049 10.8856 3.52049 10.3333V8.33329Z" fill="black"/>
</svg>
